<svg width="192" height="33" viewBox="0 0 192 33" fill="none" xmlns="http://www.w3.org/2000/svg">
<g id="Logotipo OpenXpand">
<path id="Vector" d="M24.4732 7.3975H27.7771V11.0096H27.9954C29.121 8.65982 31.2265 6.87085 34.6037 6.87085C39.6871 6.87085 43.3538 10.9396 43.3538 16.7614C43.3538 22.6886 39.6143 26.6868 34.821 26.6868C31.4807 26.6868 29.4833 24.7225 28.5756 22.6539H28.3214V33H24.4727L24.4732 7.3975ZM33.8774 23.1789C37.0362 23.1789 39.3237 20.759 39.3237 16.8662C39.3237 13.0782 37.1818 10.4129 33.9866 10.4129C30.5008 10.4129 28.4311 13.3236 28.4311 16.8309C28.4311 20.2329 30.3552 23.1789 33.8774 23.1789Z" fill="#300E4B"/>
<path id="Vector_2" d="M46.1123 16.831C46.1123 11.1145 50.0332 6.90564 55.5165 6.90564C60.9998 6.90564 64.2308 11.1145 64.2308 15.8841C64.2308 16.5508 64.2308 17.0416 64.195 18.3745H49.998C50.5792 21.7413 53.1573 23.4249 55.9163 23.4249C57.9501 23.4249 60.0915 22.5481 61.7255 20.7602L63.9043 22.9694C61.9069 25.4598 58.8573 26.7221 55.8799 26.7221C50.9415 26.7216 46.1123 23.3896 46.1123 16.831ZM60.4185 15.4286C60.3457 12.0966 57.8404 10.2029 55.2992 10.2029C52.9025 10.2029 50.5064 11.8512 49.998 15.4286H60.4185Z" fill="#300E4B"/>
<path id="Vector_3" d="M68.1148 7.43223H71.7457V11.0449H71.9999C72.6898 8.72984 75.5221 6.90613 78.6082 6.90613C82.8931 6.90613 85.1078 9.7473 85.1078 14.3763V26.196H81.1493V15.6039C81.1493 11.8512 79.6615 10.2028 77.1914 10.2028C74.2504 10.2028 72.0722 12.6579 72.0722 16.7614V26.196H68.1143L68.1148 7.43223Z" fill="#300E4B"/>
<path id="Vector_4" d="M94.693 16.691L87.9756 7.43237H92.3691L97.1625 13.9904H97.3798L101.81 7.43237H105.985L99.3767 16.691L106.349 26.1956H101.955L96.9811 19.3568H96.7627L92.1149 26.1956H87.9756L94.693 16.691Z" fill="#300E4B"/>
<path id="Vector_5" d="M109.397 7.3975H112.702V11.0096H112.92C114.046 8.65982 116.151 6.87085 119.528 6.87085C124.611 6.87085 128.279 10.9396 128.279 16.7614C128.279 22.6886 124.539 26.6868 119.746 26.6868C116.405 26.6868 114.408 24.7225 113.5 22.6539H113.246V33H109.397V7.3975ZM118.802 23.1789C121.961 23.1789 124.248 20.759 124.248 16.8662C124.248 13.0782 122.106 10.4129 118.911 10.4129C115.426 10.4129 113.355 13.3236 113.355 16.8309C113.355 20.2329 115.279 23.1789 118.802 23.1789Z" fill="#300E4B"/>
<path id="Vector_6" d="M130.711 21.4258C130.711 17.603 134.524 15.5687 138.735 15.5687H143.31V14.4111C143.31 11.6758 141.568 10.2029 139.534 10.2029C137.029 10.2029 135.649 11.3951 134.487 14.131L131.219 12.7981C132.49 9.08063 135.504 6.90564 139.534 6.90564C144.037 6.90564 147.013 9.5014 147.013 13.9904V22.5133C147.013 22.9341 147.195 23.1795 147.522 23.1795H149.01V26.1955H146.759C145.017 26.1955 144.145 25.2486 144.145 23.4602L144.181 22.2679H143.855C142.693 24.7583 140.115 26.6515 136.81 26.6515C133.398 26.6515 130.711 24.6525 130.711 21.4258ZM137.573 23.3549C140.333 23.3549 143.019 20.7944 143.31 18.3392H140.079C136.956 18.3392 134.487 19.2514 134.487 21.1098C134.487 22.5833 136.048 23.3549 137.573 23.3549Z" fill="#300E4B"/>
<path id="Vector_7" d="M152.423 7.43223H156.054V11.0449H156.309C156.998 8.72984 159.831 6.90613 162.916 6.90613C167.202 6.90613 169.416 9.7473 169.416 14.3763V26.196H165.458V15.6039C165.458 11.8512 163.97 10.2028 161.5 10.2028C158.559 10.2028 156.381 12.6579 156.381 16.7614V26.196H152.423V7.43223H152.423Z" fill="#300E4B"/>
<path id="Vector_8" d="M173.118 16.7963C173.118 11.045 176.713 6.90624 181.761 6.90624C184.955 6.90624 187.026 8.80054 187.897 10.9397H188.151V0.418213H192V26.1961H188.696V22.5834H188.478C187.388 24.8979 185.21 26.7216 181.906 26.7216C176.858 26.7216 173.118 22.6887 173.118 16.7963ZM182.559 23.179C185.972 23.179 188.041 20.2689 188.041 16.761C188.041 13.359 186.117 10.4478 182.595 10.4478C179.436 10.4478 177.149 12.7976 177.149 16.761C177.149 20.549 179.254 23.179 182.559 23.179Z" fill="#300E4B"/>
<path id="Vector_9" d="M0.0369471 17.0543H4.14815V17.4619C4.14815 21.1286 7.18564 23.6846 10.4454 23.6846C13.6676 23.6846 16.4454 21.203 16.4454 17.5727V17.0913H20.631C20.631 17.3141 20.668 17.721 20.668 18.0177C20.668 23.796 15.7417 27.8333 10.297 27.8333C4.88877 27.8333 0 23.6852 0 17.8324C0 17.5727 -1.36411e-06 17.388 0.0369471 17.0543ZM10.3334 6.90564C15.3336 6.90564 19.1487 10.1279 20.3713 14.7211H16.1117C15.1858 12.4247 13.0373 10.9799 10.3329 10.9799C7.62957 10.9799 5.51855 12.4986 4.55458 14.7211H0.331985C1.4818 10.1279 5.66689 6.90564 10.3334 6.90564Z" fill="#300E4B"/>
</g>
</svg>
